<svg width="121" height="120" viewBox="0 0 121 120" fill="none" xmlns="http://www.w3.org/2000/svg">
<circle cx="60.5" cy="60" r="59.5026" fill="#F8F8F8" stroke="#373737" stroke-width="0.994845"/>
<path d="M66.5423 31.25V43.75H79.0423L66.5423 31.25ZM63.4173 43.75V31.25H46.2298C43.5931 31.25 41.5423 33.3984 41.5423 35.9375V76.5625C41.5423 79.1992 43.5931 81.25 46.2298 81.25H74.3548C76.8939 81.25 79.0423 79.1992 79.0423 76.5625V46.875H66.5423C64.7845 46.875 63.4173 45.5078 63.4173 43.75ZM68.1048 71.875H52.4798C51.6009 71.875 50.9173 71.1914 50.9173 70.3125C50.9173 69.5312 51.6009 68.75 52.4798 68.75H68.1048C68.886 68.75 69.6673 69.5312 69.6673 70.3125C69.6673 71.1914 68.886 71.875 68.1048 71.875ZM68.1048 65.625H52.4798C51.6009 65.625 50.9173 64.9414 50.9173 64.0625C50.9173 63.2812 51.6009 62.5 52.4798 62.5H68.1048C68.886 62.5 69.6673 63.2812 69.6673 64.0625C69.6673 64.9414 68.886 65.625 68.1048 65.625ZM69.6673 57.8125C69.6673 58.6914 68.886 59.375 68.1048 59.375H52.4798C51.6009 59.375 50.9173 58.6914 50.9173 57.8125C50.9173 57.0312 51.6009 56.25 52.4798 56.25H68.1048C68.886 56.25 69.6673 57.0312 69.6673 57.8125Z" fill="#C3CBFF"/>
<path d="M66.5423 31.25L67.2458 30.5465L65.5474 28.8482V31.25H66.5423ZM66.5423 43.75H65.5474V44.7448H66.5423V43.75ZM79.0423 43.75V44.7448H81.4441L79.7458 43.0465L79.0423 43.75ZM63.4173 31.25H64.4121V30.2552H63.4173V31.25ZM79.0423 46.875H80.0371V45.8802H79.0423V46.875ZM65.5474 31.25V43.75H67.5371V31.25H65.5474ZM66.5423 44.7448H79.0423V42.7552H66.5423V44.7448ZM79.7458 43.0465L67.2458 30.5465L65.8388 31.9535L78.3388 44.4535L79.7458 43.0465ZM64.4121 43.75V31.25H62.4224V43.75H64.4121ZM63.4173 30.2552H46.2298V32.2448H63.4173V30.2552ZM46.2298 30.2552C43.0302 30.2552 40.5474 32.8625 40.5474 35.9375H42.5371C42.5371 33.9343 44.156 32.2448 46.2298 32.2448V30.2552ZM40.5474 35.9375V76.5625H42.5371V35.9375H40.5474ZM40.5474 76.5625C40.5474 79.7487 43.0436 82.2448 46.2298 82.2448V80.2552C44.1425 80.2552 42.5371 78.6498 42.5371 76.5625H40.5474ZM46.2298 82.2448H74.3548V80.2552H46.2298V82.2448ZM74.3548 82.2448C77.4297 82.2448 80.0371 79.7621 80.0371 76.5625H78.0474C78.0474 78.6363 76.358 80.2552 74.3548 80.2552V82.2448ZM80.0371 76.5625V46.875H78.0474V76.5625H80.0371ZM79.0423 45.8802H66.5423V47.8698H79.0423V45.8802ZM66.5423 45.8802C65.3339 45.8802 64.4121 44.9584 64.4121 43.75H62.4224C62.4224 46.0573 64.235 47.8698 66.5423 47.8698V45.8802ZM68.1048 70.8802H52.4798V72.8698H68.1048V70.8802ZM52.4798 70.8802C52.1503 70.8802 51.9121 70.642 51.9121 70.3125H49.9224C49.9224 71.7408 51.0514 72.8698 52.4798 72.8698V70.8802ZM51.9121 70.3125C51.9121 70.0404 52.1898 69.7448 52.4798 69.7448V67.7552C51.012 67.7552 49.9224 69.0221 49.9224 70.3125H51.9121ZM52.4798 69.7448H68.1048V67.7552H52.4798V69.7448ZM68.1048 69.7448C68.1719 69.7448 68.3222 69.7884 68.4755 69.9417C68.6289 70.0951 68.6724 70.2454 68.6724 70.3125H70.6621C70.6621 69.5983 70.3151 68.9674 69.8825 68.5348C69.4499 68.1022 68.819 67.7552 68.1048 67.7552V69.7448ZM68.6724 70.3125C68.6724 70.6025 68.3769 70.8802 68.1048 70.8802V72.8698C69.3951 72.8698 70.6621 71.7803 70.6621 70.3125H68.6724ZM68.1048 64.6302H52.4798V66.6198H68.1048V64.6302ZM52.4798 64.6302C52.1503 64.6302 51.9121 64.392 51.9121 64.0625H49.9224C49.9224 65.4908 51.0514 66.6198 52.4798 66.6198V64.6302ZM51.9121 64.0625C51.9121 63.7904 52.1898 63.4948 52.4798 63.4948V61.5052C51.012 61.5052 49.9224 62.7721 49.9224 64.0625H51.9121ZM52.4798 63.4948H68.1048V61.5052H52.4798V63.4948ZM68.1048 63.4948C68.1719 63.4948 68.3222 63.5384 68.4755 63.6917C68.6289 63.8451 68.6724 63.9954 68.6724 64.0625H70.6621C70.6621 63.3483 70.3151 62.7174 69.8825 62.2848C69.4499 61.8522 68.819 61.5052 68.1048 61.5052V63.4948ZM68.6724 64.0625C68.6724 64.3525 68.3769 64.6302 68.1048 64.6302V66.6198C69.3951 66.6198 70.6621 65.5303 70.6621 64.0625H68.6724ZM68.6724 57.8125C68.6724 58.1025 68.3769 58.3802 68.1048 58.3802V60.3698C69.3951 60.3698 70.6621 59.2803 70.6621 57.8125H68.6724ZM68.1048 58.3802H52.4798V60.3698H68.1048V58.3802ZM52.4798 58.3802C52.1503 58.3802 51.9121 58.142 51.9121 57.8125H49.9224C49.9224 59.2408 51.0514 60.3698 52.4798 60.3698V58.3802ZM51.9121 57.8125C51.9121 57.5404 52.1898 57.2448 52.4798 57.2448V55.2552C51.012 55.2552 49.9224 56.5221 49.9224 57.8125H51.9121ZM52.4798 57.2448H68.1048V55.2552H52.4798V57.2448ZM68.1048 57.2448C68.1719 57.2448 68.3222 57.2884 68.4755 57.4417C68.6289 57.5951 68.6724 57.7454 68.6724 57.8125H70.6621C70.6621 57.0983 70.3151 56.4674 69.8825 56.0348C69.4499 55.6022 68.819 55.2552 68.1048 55.2552V57.2448Z" fill="#373737"/>
</svg>
