<svg width="30" height="30" viewBox="0 0 30 30" fill="none" xmlns="http://www.w3.org/2000/svg">
<circle cx="15" cy="15" r="14.5" fill="white" stroke="#373737"/>
<path d="M15.167 15.0834C17.0811 15.0834 18.667 13.5248 18.667 11.5834C18.667 9.66931 17.0811 8.08337 15.167 8.08337C13.2256 8.08337 11.667 9.66931 11.667 11.5834C11.667 13.5248 13.2256 15.0834 15.167 15.0834ZM16.5342 16.3959H13.7725C11.1475 16.3959 9.04199 18.5287 9.04199 21.1537C9.04199 21.6732 9.45215 22.0834 9.97168 22.0834H20.335C20.8545 22.0834 21.292 21.6732 21.292 21.1537C21.292 18.5287 19.1592 16.3959 16.5342 16.3959Z" fill="#373737"/>
<path d="M15.167 16.0834C17.6282 16.0834 19.667 14.0821 19.667 11.5834H17.667C17.667 12.9674 16.5339 14.0834 15.167 14.0834V16.0834ZM19.667 11.5834C19.667 9.11703 17.6333 7.08337 15.167 7.08337V9.08337C16.5288 9.08337 17.667 10.2216 17.667 11.5834H19.667ZM15.167 7.08337C12.6682 7.08337 10.667 9.12212 10.667 11.5834H12.667C12.667 10.2165 13.7829 9.08337 15.167 9.08337V7.08337ZM10.667 11.5834C10.667 14.0771 12.6733 16.0834 15.167 16.0834V14.0834C13.7779 14.0834 12.667 12.9725 12.667 11.5834H10.667ZM16.5342 15.3959H13.7725V17.3959H16.5342V15.3959ZM13.7725 15.3959C10.5877 15.3959 8.04199 17.9839 8.04199 21.1537H10.042C10.042 19.0734 11.7072 17.3959 13.7725 17.3959V15.3959ZM8.04199 21.1537C8.04199 22.2255 8.89986 23.0834 9.97168 23.0834V21.0834C9.97446 21.0834 9.98237 21.0841 9.99261 21.0884C10.0023 21.0925 10.0114 21.0985 10.0191 21.1062C10.0268 21.114 10.0329 21.1231 10.037 21.1328C10.0412 21.143 10.042 21.1509 10.042 21.1537H8.04199ZM9.97168 23.0834H20.335V21.0834H9.97168V23.0834ZM20.335 23.0834C21.3687 23.0834 22.292 22.2628 22.292 21.1537H20.292C20.292 21.1416 20.2948 21.1275 20.3004 21.1149C20.3056 21.1032 20.3115 21.0961 20.3155 21.0922C20.3223 21.0857 20.3294 21.0834 20.335 21.0834V23.0834ZM22.292 21.1537C22.292 17.9764 19.7115 15.3959 16.5342 15.3959V17.3959C18.6069 17.3959 20.292 19.081 20.292 21.1537H22.292Z" fill="#373737"/>
</svg>
