<svg width="121" height="120" viewBox="0 0 121 120" fill="none" xmlns="http://www.w3.org/2000/svg">
<circle cx="60.5" cy="60" r="59.5026" fill="#F8F8F8" stroke="#373737" stroke-width="0.994845"/>
<path d="M53.75 37.375V40.5H66.25V37.375C66.25 35.7148 67.6172 34.25 69.375 34.25C71.0352 34.25 72.5 35.7148 72.5 37.375V40.5H77.1875C79.7266 40.5 81.875 42.6484 81.875 45.1875V49.875H38.125V45.1875C38.125 42.6484 40.1758 40.5 42.8125 40.5H47.5V37.375C47.5 35.7148 48.8672 34.25 50.625 34.25C52.2852 34.25 53.75 35.7148 53.75 37.375ZM38.125 53H81.875V79.5625C81.875 82.1992 79.7266 84.25 77.1875 84.25H42.8125C40.1758 84.25 38.125 82.1992 38.125 79.5625V53ZM44.375 63.9375C44.375 64.8164 45.0586 65.5 45.9375 65.5H49.0625C49.8438 65.5 50.625 64.8164 50.625 63.9375V60.8125C50.625 60.0312 49.8438 59.25 49.0625 59.25H45.9375C45.0586 59.25 44.375 60.0312 44.375 60.8125V63.9375ZM56.875 63.9375C56.875 64.8164 57.5586 65.5 58.4375 65.5H61.5625C62.3438 65.5 63.125 64.8164 63.125 63.9375V60.8125C63.125 60.0312 62.3438 59.25 61.5625 59.25H58.4375C57.5586 59.25 56.875 60.0312 56.875 60.8125V63.9375ZM70.9375 59.25C70.0586 59.25 69.375 60.0312 69.375 60.8125V63.9375C69.375 64.8164 70.0586 65.5 70.9375 65.5H74.0625C74.8438 65.5 75.625 64.8164 75.625 63.9375V60.8125C75.625 60.0312 74.8438 59.25 74.0625 59.25H70.9375ZM44.375 76.4375C44.375 77.3164 45.0586 78 45.9375 78H49.0625C49.8438 78 50.625 77.3164 50.625 76.4375V73.3125C50.625 72.5312 49.8438 71.75 49.0625 71.75H45.9375C45.0586 71.75 44.375 72.5312 44.375 73.3125V76.4375ZM58.4375 71.75C57.5586 71.75 56.875 72.5312 56.875 73.3125V76.4375C56.875 77.3164 57.5586 78 58.4375 78H61.5625C62.3438 78 63.125 77.3164 63.125 76.4375V73.3125C63.125 72.5312 62.3438 71.75 61.5625 71.75H58.4375ZM69.375 76.4375C69.375 77.3164 70.0586 78 70.9375 78H74.0625C74.8438 78 75.625 77.3164 75.625 76.4375V73.3125C75.625 72.5312 74.8438 71.75 74.0625 71.75H70.9375C70.0586 71.75 69.375 72.5312 69.375 73.3125V76.4375Z" fill="#C3CBFF"/>
<path d="M53.75 40.5H52.7552V41.4948H53.75V40.5ZM66.25 40.5V41.4948H67.2448V40.5H66.25ZM72.5 40.5H71.5052V41.4948H72.5V40.5ZM81.875 49.875V50.8698H82.8698V49.875H81.875ZM38.125 49.875H37.1302V50.8698H38.125V49.875ZM47.5 40.5V41.4948H48.4948V40.5H47.5ZM38.125 53V52.0052H37.1302V53H38.125ZM81.875 53H82.8698V52.0052H81.875V53ZM52.7552 37.375V40.5H54.7448V37.375H52.7552ZM53.75 41.4948H66.25V39.5052H53.75V41.4948ZM67.2448 40.5V37.375H65.2552V40.5H67.2448ZM67.2448 37.375C67.2448 36.244 68.1867 35.2448 69.375 35.2448V33.2552C67.0477 33.2552 65.2552 35.1857 65.2552 37.375H67.2448ZM69.375 35.2448C70.4857 35.2448 71.5052 36.2643 71.5052 37.375H73.4948C73.4948 35.1654 71.5846 33.2552 69.375 33.2552V35.2448ZM71.5052 37.375V40.5H73.4948V37.375H71.5052ZM72.5 41.4948H77.1875V39.5052H72.5V41.4948ZM77.1875 41.4948C79.1771 41.4948 80.8802 43.1979 80.8802 45.1875H82.8698C82.8698 42.099 80.276 39.5052 77.1875 39.5052V41.4948ZM80.8802 45.1875V49.875H82.8698V45.1875H80.8802ZM81.875 48.8802H38.125V50.8698H81.875V48.8802ZM39.1198 49.875V45.1875H37.1302V49.875H39.1198ZM39.1198 45.1875C39.1198 43.1843 40.7387 41.4948 42.8125 41.4948V39.5052C39.6129 39.5052 37.1302 42.1125 37.1302 45.1875H39.1198ZM42.8125 41.4948H47.5V39.5052H42.8125V41.4948ZM48.4948 40.5V37.375H46.5052V40.5H48.4948ZM48.4948 37.375C48.4948 36.244 49.4367 35.2448 50.625 35.2448V33.2552C48.2977 33.2552 46.5052 35.1857 46.5052 37.375H48.4948ZM50.625 35.2448C51.7357 35.2448 52.7552 36.2643 52.7552 37.375H54.7448C54.7448 35.1654 52.8346 33.2552 50.625 33.2552V35.2448ZM38.125 53.9948H81.875V52.0052H38.125V53.9948ZM80.8802 53V79.5625H82.8698V53H80.8802ZM80.8802 79.5625C80.8802 81.6363 79.1907 83.2552 77.1875 83.2552V85.2448C80.2625 85.2448 82.8698 82.7621 82.8698 79.5625H80.8802ZM77.1875 83.2552H42.8125V85.2448H77.1875V83.2552ZM42.8125 83.2552C40.7252 83.2552 39.1198 81.6498 39.1198 79.5625H37.1302C37.1302 82.7487 39.6263 85.2448 42.8125 85.2448V83.2552ZM39.1198 79.5625V53H37.1302V79.5625H39.1198ZM43.3802 63.9375C43.3802 65.3658 44.5092 66.4948 45.9375 66.4948V64.5052C45.608 64.5052 45.3698 64.267 45.3698 63.9375H43.3802ZM45.9375 66.4948H49.0625V64.5052H45.9375V66.4948ZM49.0625 66.4948C50.3529 66.4948 51.6198 65.4053 51.6198 63.9375H49.6302C49.6302 64.2275 49.3346 64.5052 49.0625 64.5052V66.4948ZM51.6198 63.9375V60.8125H49.6302V63.9375H51.6198ZM51.6198 60.8125C51.6198 60.0983 51.2728 59.4674 50.8402 59.0348C50.4076 58.6022 49.7767 58.2552 49.0625 58.2552V60.2448C49.1296 60.2448 49.2799 60.2884 49.4333 60.4417C49.5866 60.5951 49.6302 60.7454 49.6302 60.8125H51.6198ZM49.0625 58.2552H45.9375V60.2448H49.0625V58.2552ZM45.9375 58.2552C44.4697 58.2552 43.3802 59.5221 43.3802 60.8125H45.3698C45.3698 60.5404 45.6475 60.2448 45.9375 60.2448V58.2552ZM43.3802 60.8125V63.9375H45.3698V60.8125H43.3802ZM55.8802 63.9375C55.8802 65.3658 57.0092 66.4948 58.4375 66.4948V64.5052C58.108 64.5052 57.8698 64.267 57.8698 63.9375H55.8802ZM58.4375 66.4948H61.5625V64.5052H58.4375V66.4948ZM61.5625 66.4948C62.8529 66.4948 64.1198 65.4053 64.1198 63.9375H62.1302C62.1302 64.2275 61.8346 64.5052 61.5625 64.5052V66.4948ZM64.1198 63.9375V60.8125H62.1302V63.9375H64.1198ZM64.1198 60.8125C64.1198 60.0983 63.7728 59.4674 63.3402 59.0348C62.9076 58.6022 62.2767 58.2552 61.5625 58.2552V60.2448C61.6296 60.2448 61.7799 60.2884 61.9333 60.4417C62.0866 60.5951 62.1302 60.7454 62.1302 60.8125H64.1198ZM61.5625 58.2552H58.4375V60.2448H61.5625V58.2552ZM58.4375 58.2552C56.9697 58.2552 55.8802 59.5221 55.8802 60.8125H57.8698C57.8698 60.5404 58.1475 60.2448 58.4375 60.2448V58.2552ZM55.8802 60.8125V63.9375H57.8698V60.8125H55.8802ZM70.9375 58.2552C69.4697 58.2552 68.3802 59.5221 68.3802 60.8125H70.3698C70.3698 60.5404 70.6475 60.2448 70.9375 60.2448V58.2552ZM68.3802 60.8125V63.9375H70.3698V60.8125H68.3802ZM68.3802 63.9375C68.3802 65.3658 69.5092 66.4948 70.9375 66.4948V64.5052C70.608 64.5052 70.3698 64.267 70.3698 63.9375H68.3802ZM70.9375 66.4948H74.0625V64.5052H70.9375V66.4948ZM74.0625 66.4948C75.3529 66.4948 76.6198 65.4053 76.6198 63.9375H74.6302C74.6302 64.2275 74.3346 64.5052 74.0625 64.5052V66.4948ZM76.6198 63.9375V60.8125H74.6302V63.9375H76.6198ZM76.6198 60.8125C76.6198 60.0983 76.2728 59.4674 75.8402 59.0348C75.4076 58.6022 74.7767 58.2552 74.0625 58.2552V60.2448C74.1296 60.2448 74.2799 60.2884 74.4333 60.4417C74.5866 60.5951 74.6302 60.7454 74.6302 60.8125H76.6198ZM74.0625 58.2552H70.9375V60.2448H74.0625V58.2552ZM43.3802 76.4375C43.3802 77.8658 44.5092 78.9948 45.9375 78.9948V77.0052C45.608 77.0052 45.3698 76.767 45.3698 76.4375H43.3802ZM45.9375 78.9948H49.0625V77.0052H45.9375V78.9948ZM49.0625 78.9948C50.3529 78.9948 51.6198 77.9053 51.6198 76.4375H49.6302C49.6302 76.7275 49.3346 77.0052 49.0625 77.0052V78.9948ZM51.6198 76.4375V73.3125H49.6302V76.4375H51.6198ZM51.6198 73.3125C51.6198 72.5983 51.2728 71.9674 50.8402 71.5348C50.4076 71.1022 49.7767 70.7552 49.0625 70.7552V72.7448C49.1296 72.7448 49.2799 72.7884 49.4333 72.9417C49.5866 73.0951 49.6302 73.2454 49.6302 73.3125H51.6198ZM49.0625 70.7552H45.9375V72.7448H49.0625V70.7552ZM45.9375 70.7552C44.4697 70.7552 43.3802 72.0221 43.3802 73.3125H45.3698C45.3698 73.0404 45.6475 72.7448 45.9375 72.7448V70.7552ZM43.3802 73.3125V76.4375H45.3698V73.3125H43.3802ZM58.4375 70.7552C56.9697 70.7552 55.8802 72.0221 55.8802 73.3125H57.8698C57.8698 73.0404 58.1475 72.7448 58.4375 72.7448V70.7552ZM55.8802 73.3125V76.4375H57.8698V73.3125H55.8802ZM55.8802 76.4375C55.8802 77.8658 57.0092 78.9948 58.4375 78.9948V77.0052C58.108 77.0052 57.8698 76.767 57.8698 76.4375H55.8802ZM58.4375 78.9948H61.5625V77.0052H58.4375V78.9948ZM61.5625 78.9948C62.8529 78.9948 64.1198 77.9053 64.1198 76.4375H62.1302C62.1302 76.7275 61.8346 77.0052 61.5625 77.0052V78.9948ZM64.1198 76.4375V73.3125H62.1302V76.4375H64.1198ZM64.1198 73.3125C64.1198 72.5983 63.7728 71.9674 63.3402 71.5348C62.9076 71.1022 62.2767 70.7552 61.5625 70.7552V72.7448C61.6296 72.7448 61.7799 72.7884 61.9333 72.9417C62.0866 73.0951 62.1302 73.2454 62.1302 73.3125H64.1198ZM61.5625 70.7552H58.4375V72.7448H61.5625V70.7552ZM68.3802 76.4375C68.3802 77.8658 69.5092 78.9948 70.9375 78.9948V77.0052C70.608 77.0052 70.3698 76.767 70.3698 76.4375H68.3802ZM70.9375 78.9948H74.0625V77.0052H70.9375V78.9948ZM74.0625 78.9948C75.3529 78.9948 76.6198 77.9053 76.6198 76.4375H74.6302C74.6302 76.7275 74.3346 77.0052 74.0625 77.0052V78.9948ZM76.6198 76.4375V73.3125H74.6302V76.4375H76.6198ZM76.6198 73.3125C76.6198 72.5983 76.2728 71.9674 75.8402 71.5348C75.4076 71.1022 74.7767 70.7552 74.0625 70.7552V72.7448C74.1296 72.7448 74.2799 72.7884 74.4333 72.9417C74.5866 73.0951 74.6302 73.2454 74.6302 73.3125H76.6198ZM74.0625 70.7552H70.9375V72.7448H74.0625V70.7552ZM70.9375 70.7552C69.4697 70.7552 68.3802 72.0221 68.3802 73.3125H70.3698C70.3698 73.0404 70.6475 72.7448 70.9375 72.7448V70.7552ZM68.3802 73.3125V76.4375H70.3698V73.3125H68.3802Z" fill="#373737"/>
</svg>
