<svg width="121" height="120" viewBox="0 0 121 120" fill="none" xmlns="http://www.w3.org/2000/svg">
<circle cx="60.5" cy="60" r="59.5026" fill="#F8F8F8" stroke="#373737" stroke-width="0.994845"/>
<path d="M41.375 40.5C41.375 37.082 44.1094 34.25 47.625 34.25H63.25V46.75C63.25 48.5078 64.6172 49.875 66.375 49.875H78.875V63.5469L69.5977 72.8242C68.8164 73.6055 68.2305 74.582 67.9375 75.7539L66.4727 81.6133C66.2773 82.4922 66.2773 83.4688 66.5703 84.25H47.625C44.1094 84.25 41.375 81.5156 41.375 78V40.5ZM66.375 46.75V34.25L78.875 46.75H66.375ZM96.4531 58.7617C97.918 60.2266 97.918 62.668 96.4531 64.2305L93.5234 67.1602L86.5898 60.2266L89.5195 57.2969C90.9844 55.832 93.5234 55.832 94.9883 57.2969L96.4531 58.7617ZM71.7461 74.9727L84.4414 62.375L91.375 69.3086L78.6797 81.9062C78.2891 82.2969 77.8008 82.5898 77.3125 82.7852L71.3555 84.25C70.8672 84.3477 70.2812 84.25 69.8906 83.8594C69.5 83.4688 69.4023 82.8828 69.5 82.2969L70.9648 76.4375C71.0625 75.9492 71.3555 75.4609 71.7461 74.9727Z" fill="#C3CBFF"/>
<path d="M63.25 34.25H64.2448V33.2552H63.25V34.25ZM78.875 49.875H79.8698V48.8802H78.875V49.875ZM78.875 63.5469L79.5785 64.2503L79.8698 63.959V63.5469H78.875ZM66.4727 81.6133L65.5075 81.372L65.5043 81.3847L65.5015 81.3975L66.4727 81.6133ZM66.5703 84.25V85.2448H68.0059L67.5018 83.9007L66.5703 84.25ZM66.375 46.75H65.3802V47.7448H66.375V46.75ZM66.375 34.25L67.0785 33.5465L65.3802 31.8482V34.25H66.375ZM78.875 46.75V47.7448H81.2768L79.5785 46.0465L78.875 46.75ZM96.4531 64.2305L97.1566 64.9339L97.1679 64.9226L97.1789 64.9109L96.4531 64.2305ZM93.5234 67.1602L92.82 67.8636L93.5234 68.5671L94.2269 67.8636L93.5234 67.1602ZM86.5898 60.2266L85.8864 59.5231L85.1829 60.2266L85.8864 60.93L86.5898 60.2266ZM71.7461 74.9727L71.0454 74.2665L71.0049 74.3067L70.9693 74.3512L71.7461 74.9727ZM84.4414 62.375L85.1449 61.6715L84.4441 60.9708L83.7407 61.6688L84.4414 62.375ZM91.375 69.3086L92.0757 70.0148L92.7846 69.3113L92.0785 68.6051L91.375 69.3086ZM78.6797 81.9062L77.9789 81.2001L77.9762 81.2028L78.6797 81.9062ZM77.3125 82.7852L77.5501 83.7512L77.6175 83.7346L77.682 83.7088L77.3125 82.7852ZM71.3555 84.25L71.5506 85.2255L71.5719 85.2213L71.593 85.2161L71.3555 84.25ZM69.5 82.2969L68.5349 82.0556L68.5252 82.0941L68.5187 82.1333L69.5 82.2969ZM70.9648 76.4375L71.93 76.6788L71.9357 76.6558L71.9404 76.6326L70.9648 76.4375ZM42.3698 40.5C42.3698 37.6213 44.6689 35.2448 47.625 35.2448V33.2552C43.5498 33.2552 40.3802 36.5428 40.3802 40.5H42.3698ZM47.625 35.2448H63.25V33.2552H47.625V35.2448ZM62.2552 34.25V46.75H64.2448V34.25H62.2552ZM62.2552 46.75C62.2552 49.0573 64.0677 50.8698 66.375 50.8698V48.8802C65.1666 48.8802 64.2448 47.9584 64.2448 46.75H62.2552ZM66.375 50.8698H78.875V48.8802H66.375V50.8698ZM77.8802 49.875V63.5469H79.8698V49.875H77.8802ZM78.1715 62.8434L68.8942 72.1208L70.3011 73.5277L79.5785 64.2503L78.1715 62.8434ZM68.8942 72.1208C67.992 73.023 67.3113 74.1571 66.9724 75.5126L68.9026 75.9952C69.1497 75.007 69.6408 74.188 70.3011 73.5277L68.8942 72.1208ZM66.9724 75.5126L65.5075 81.372L67.4378 81.8546L68.9026 75.9952L66.9724 75.5126ZM65.5015 81.3975C65.2782 82.4023 65.2587 83.5858 65.6388 84.5993L67.5018 83.9007C67.2959 83.3517 67.2765 82.5821 67.4438 81.8291L65.5015 81.3975ZM66.5703 83.2552H47.625V85.2448H66.5703V83.2552ZM47.625 83.2552C44.6588 83.2552 42.3698 80.9662 42.3698 78H40.3802C40.3802 82.0651 43.5599 85.2448 47.625 85.2448V83.2552ZM42.3698 78V40.5H40.3802V78H42.3698ZM67.3698 46.75V34.25H65.3802V46.75H67.3698ZM65.6715 34.9535L78.1715 47.4535L79.5785 46.0465L67.0785 33.5465L65.6715 34.9535ZM78.875 45.7552H66.375V47.7448H78.875V45.7552ZM95.7497 59.4652C96.814 60.5295 96.8455 62.3574 95.7273 63.5501L97.1789 64.9109C98.9905 62.9786 99.022 59.9237 97.1566 58.0583L95.7497 59.4652ZM95.7497 63.527L92.82 66.4567L94.2269 67.8636L97.1566 64.9339L95.7497 63.527ZM94.2269 66.4567L87.2933 59.5231L85.8864 60.93L92.82 67.8636L94.2269 66.4567ZM87.2933 60.93L90.223 58.0003L88.8161 56.5934L85.8864 59.5231L87.2933 60.93ZM90.223 58.0003C91.2993 56.924 93.2085 56.924 94.2848 58.0003L95.6917 56.5934C93.8384 54.7401 90.6694 54.7401 88.8161 56.5934L90.223 58.0003ZM94.2848 58.0003L95.7497 59.4652L97.1566 58.0583L95.6917 56.5934L94.2848 58.0003ZM72.4468 75.6788L85.1421 63.0812L83.7407 61.6688L71.0454 74.2665L72.4468 75.6788ZM83.7379 63.0785L90.6715 70.0121L92.0785 68.6051L85.1449 61.6715L83.7379 63.0785ZM90.6743 68.6024L77.9789 81.2001L79.3804 82.6124L92.0757 70.0148L90.6743 68.6024ZM77.9762 81.2028C77.6988 81.4802 77.3321 81.7058 76.943 81.8615L77.682 83.7088C78.2695 83.4738 78.8794 83.1135 79.3831 82.6097L77.9762 81.2028ZM77.0749 81.8191L71.1179 83.2839L71.593 85.2161L77.5501 83.7512L77.0749 81.8191ZM71.1604 83.2745C71.0483 83.2969 70.9252 83.2958 70.8169 83.27C70.7114 83.2449 70.6402 83.202 70.5941 83.1559L69.1872 84.5628C69.8735 85.2491 70.83 85.3696 71.5506 85.2255L71.1604 83.2745ZM70.5941 83.1559C70.5142 83.0761 70.4135 82.8675 70.4813 82.4604L68.5187 82.1333C68.3912 82.8981 68.4858 83.8614 69.1872 84.5628L70.5941 83.1559ZM70.4651 82.5382L71.93 76.6788L69.9997 76.1962L68.5349 82.0556L70.4651 82.5382ZM71.9404 76.6326C71.9914 76.3773 72.167 76.0391 72.5229 75.5941L70.9693 74.3512C70.544 74.8828 70.1336 75.5211 69.9893 76.2424L71.9404 76.6326Z" fill="#373737"/>
</svg>
