<svg width="120" height="120" viewBox="0 0 120 120" fill="none" xmlns="http://www.w3.org/2000/svg">
<circle cx="60" cy="60" r="59.5026" fill="#F8F8F8" stroke="#373737" stroke-width="0.994845"/>
<path d="M69.1673 48.4375C69.1673 38.9648 59.9876 31.25 48.8548 31.25C37.6243 31.25 28.5423 38.9648 28.5423 48.4375C28.5423 52.3438 30.0071 55.8594 32.5462 58.7891C30.9837 62.0117 28.7376 64.3555 28.7376 64.4531C28.4446 64.6484 28.4446 64.9414 28.5423 65.2344C28.6399 65.5273 28.9329 65.625 29.2259 65.625C33.0345 65.625 36.1595 64.5508 38.6009 63.2812C41.6282 64.8438 45.0462 65.625 48.8548 65.625C59.9876 65.625 69.1673 58.0078 69.1673 48.4375ZM87.0384 74.6094C89.4798 71.6797 91.0423 68.0664 91.0423 64.0625C91.0423 54.5898 82.6439 46.875 72.2923 46.875C72.1946 46.875 72.1946 46.9727 72.1946 46.9727C72.1946 47.4609 72.2923 47.9492 72.2923 48.4375C72.2923 58.1055 64.4798 66.2109 54.0306 68.2617C56.0814 75.7812 63.4056 81.25 72.2923 81.25C75.5149 81.25 78.6399 80.4688 81.2767 79.1992C83.7181 80.2734 86.7454 81.25 90.261 81.25C90.554 81.25 90.847 81.1523 90.9446 80.8594C91.0423 80.5664 90.9446 80.2734 90.7493 80.0781C90.7493 79.9805 88.6009 77.7344 87.0384 74.6094Z" fill="#C3CBFF"/>
<path d="M32.5462 58.7891L33.4414 59.2231L33.7275 58.633L33.298 58.1375L32.5462 58.7891ZM28.7376 64.4531L29.2894 65.2809L29.7324 64.9856V64.4531H28.7376ZM38.6009 63.2812L39.0572 62.3972L38.5992 62.1608L38.1419 62.3986L38.6009 63.2812ZM87.0384 74.6094L86.2741 73.9725L85.8576 74.4723L86.1486 75.0543L87.0384 74.6094ZM54.0306 68.2617L53.839 67.2855L52.7893 67.4915L53.0708 68.5235L54.0306 68.2617ZM81.2767 79.1992L81.6773 78.2886L81.2579 78.1041L80.8451 78.3029L81.2767 79.1992ZM90.7493 80.0781H89.7545V80.4902L90.0459 80.7816L90.7493 80.0781ZM70.1621 48.4375C70.1621 38.2643 60.3727 30.2552 48.8548 30.2552V32.2448C59.6025 32.2448 68.1724 39.6654 68.1724 48.4375H70.1621ZM48.8548 30.2552C37.2359 30.2552 27.5474 38.2671 27.5474 48.4375H29.5371C29.5371 39.6626 38.0127 32.2448 48.8548 32.2448V30.2552ZM27.5474 48.4375C27.5474 52.6088 29.1162 56.3504 31.7944 59.4406L33.298 58.1375C30.898 55.3683 29.5371 52.0787 29.5371 48.4375H27.5474ZM31.651 58.355C30.9079 59.8878 29.9963 61.2224 29.2624 62.193C28.8967 62.6767 28.5776 63.0668 28.3467 63.3457C28.2351 63.4805 28.1329 63.6027 28.0636 63.6884C28.0297 63.7302 27.9903 63.7798 27.9566 63.8265C27.9411 63.848 27.9125 63.8883 27.8839 63.9377C27.8699 63.9617 27.8447 64.0069 27.8203 64.0658C27.8054 64.1018 27.7428 64.2512 27.7428 64.4531H29.7324C29.7324 64.652 29.6709 64.7973 29.6582 64.828C29.6359 64.8817 29.614 64.9206 29.6043 64.9372C29.5929 64.9568 29.5836 64.971 29.579 64.9778C29.5741 64.9852 29.5707 64.9899 29.5698 64.9911C29.5697 64.9913 29.5801 64.9773 29.6107 64.9394C29.6704 64.8656 29.7559 64.7636 29.8793 64.6146C30.1183 64.3258 30.4584 63.9102 30.8495 63.393C31.6293 62.3616 32.622 60.913 33.4414 59.2231L31.651 58.355ZM28.1858 63.6254C27.8228 63.8674 27.5891 64.2199 27.5147 64.6292C27.4481 64.9951 27.5237 65.3245 27.5985 65.549L29.4861 64.9198C29.4632 64.8512 29.49 64.8877 29.4723 64.9851C29.462 65.0413 29.4388 65.1064 29.3975 65.1682C29.3567 65.2294 29.3135 65.2648 29.2894 65.2809L28.1858 63.6254ZM27.5985 65.549C27.9051 66.4689 28.7959 66.6198 29.2259 66.6198V64.6302C29.1769 64.6302 29.1965 64.6201 29.2558 64.6497C29.2901 64.6669 29.3382 64.698 29.3852 64.7498C29.4338 64.8032 29.4673 64.8634 29.4861 64.9198L27.5985 65.549ZM29.2259 66.6198C33.2293 66.6198 36.5114 65.4891 39.0599 64.1639L38.1419 62.3986C35.8075 63.6125 32.8397 64.6302 29.2259 64.6302V66.6198ZM38.1446 64.1653C41.329 65.8088 44.9064 66.6198 48.8548 66.6198V64.6302C45.186 64.6302 41.9275 63.8787 39.0572 62.3972L38.1446 64.1653ZM48.8548 66.6198C60.3687 66.6198 70.1621 58.7116 70.1621 48.4375H68.1724C68.1724 57.304 59.6065 64.6302 48.8548 64.6302V66.6198ZM87.8026 75.2463C90.3676 72.1683 92.0371 68.336 92.0371 64.0625H90.0474C90.0474 67.7968 88.592 71.191 86.2741 73.9725L87.8026 75.2463ZM92.0371 64.0625C92.0371 53.9613 83.1107 45.8802 72.2923 45.8802V47.8698C82.177 47.8698 90.0474 55.2184 90.0474 64.0625H92.0371ZM72.2923 45.8802C72.0938 45.8802 71.8788 45.9326 71.684 46.0625C71.4954 46.1882 71.3821 46.3487 71.317 46.4789C71.2539 46.6053 71.2272 46.7195 71.2148 46.7938C71.2083 46.8334 71.2046 46.8685 71.2025 46.8976C71.2015 46.9123 71.2008 46.926 71.2004 46.9384C71.2002 46.9447 71.2 46.9506 71.1999 46.9563C71.1999 46.9592 71.1998 46.962 71.1998 46.9647C71.1998 46.9661 71.1998 46.9674 71.1998 46.9687C71.1998 46.9694 71.1998 46.97 71.1998 46.9707C71.1998 46.971 71.1998 46.9715 71.1998 46.9717C71.1998 46.9722 71.1998 46.9727 72.1946 46.9727C73.1895 46.9727 73.1895 46.9731 73.1895 46.9736C73.1895 46.9738 73.1895 46.9743 73.1895 46.9746C73.1895 46.9753 73.1895 46.9759 73.1895 46.9766C73.1895 46.9779 73.1895 46.9792 73.1894 46.9805C73.1894 46.9831 73.1894 46.9858 73.1894 46.9884C73.1893 46.9938 73.1891 46.9992 73.1889 47.0047C73.1886 47.0157 73.188 47.0273 73.1871 47.0393C73.1854 47.0631 73.1825 47.0906 73.1775 47.1209C73.1681 47.1769 73.1476 47.2668 73.0967 47.3687C73.0437 47.4745 72.9488 47.6106 72.7877 47.718C72.6203 47.8296 72.442 47.8698 72.2923 47.8698V45.8802ZM71.1998 46.9727C71.1998 47.2748 71.23 47.5684 71.2536 47.8041C71.2788 48.0567 71.2974 48.2513 71.2974 48.4375H73.2871C73.2871 48.1354 73.2569 47.8418 73.2334 47.6061C73.2081 47.3535 73.1895 47.1588 73.1895 46.9727H71.1998ZM71.2974 48.4375C71.2974 57.5266 63.9309 65.3048 53.839 67.2855L54.2222 69.2379C65.0287 67.117 73.2871 58.6843 73.2871 48.4375H71.2974ZM53.0708 68.5235C55.2514 76.5191 63.0034 82.2448 72.2923 82.2448V80.2552C63.8077 80.2552 56.9113 75.0434 54.9904 68L53.0708 68.5235ZM72.2923 82.2448C75.6716 82.2448 78.9436 81.4267 81.7082 80.0956L80.8451 78.3029C78.3363 79.5108 75.3583 80.2552 72.2923 80.2552V82.2448ZM80.876 80.1098C83.3899 81.2159 86.5588 82.2448 90.261 82.2448V80.2552C86.932 80.2552 84.0463 79.331 81.6773 78.2886L80.876 80.1098ZM90.261 82.2448C90.691 82.2448 91.5818 82.0939 91.8884 81.174L90.0008 80.5448C90.0196 80.4884 90.0531 80.4282 90.1017 80.3748C90.1487 80.323 90.1968 80.2919 90.2312 80.2747C90.2904 80.2451 90.31 80.2552 90.261 80.2552V82.2448ZM91.8884 81.174C92.1217 80.474 91.8755 79.7974 91.4528 79.3747L90.0459 80.7816C90.028 80.7637 90.0085 80.7358 89.997 80.6939C89.9844 80.6474 89.9847 80.593 90.0008 80.5448L91.8884 81.174ZM91.7442 80.0781C91.7442 79.8828 91.6857 79.7378 91.6701 79.6992C91.6462 79.64 91.6213 79.5943 91.6072 79.5697C91.5786 79.5195 91.55 79.4786 91.5345 79.4569C91.5009 79.4099 91.4621 79.3607 91.4293 79.3199C91.3618 79.236 91.2636 79.1181 91.1559 78.988C90.9336 78.719 90.6261 78.3435 90.272 77.8773C89.5618 76.9421 88.6725 75.6532 87.9282 74.1645L86.1486 75.0543C86.9667 76.6906 87.933 78.0872 88.6875 79.0807C89.0659 79.5788 89.3932 79.9785 89.6225 80.2558C89.7407 80.3988 89.8225 80.4968 89.8786 80.5666C89.9076 80.6027 89.9165 80.6149 89.9151 80.6129C89.9139 80.6113 89.9102 80.6061 89.905 80.5981C89.9001 80.5908 89.8906 80.576 89.879 80.5557C89.8691 80.5383 89.8473 80.4989 89.8254 80.4447C89.8119 80.4113 89.7545 80.2704 89.7545 80.0781H91.7442Z" fill="#373737"/>
</svg>
