<svg width="121" height="120" viewBox="0 0 121 120" fill="none" xmlns="http://www.w3.org/2000/svg">
<circle cx="60.5" cy="60" r="59.5026" fill="#F8F8F8" stroke="#373737" stroke-width="0.994845"/>
<path d="M84.1204 74.6094L72.4017 62.8906C75.0384 58.9844 76.4056 54.1016 75.722 48.8281C74.4524 39.8438 67.1282 32.6172 58.2415 31.4453C44.9603 29.7852 33.7298 41.0156 35.3899 54.2969C36.5618 63.1836 43.7884 70.5078 52.7728 71.7773C58.0462 72.4609 62.929 71.0938 66.9329 68.457L78.554 80.1758C80.1165 81.6406 82.5579 81.6406 84.1204 80.1758C85.5853 78.6133 85.5853 76.1719 84.1204 74.6094ZM43.0071 51.5625C43.0071 44.7266 48.5735 39.0625 55.5071 39.0625C62.3431 39.0625 68.0071 44.7266 68.0071 51.5625C68.0071 58.4961 62.3431 64.0625 55.5071 64.0625C48.5735 64.0625 43.0071 58.4961 43.0071 51.5625Z" fill="#C3CBFF"/>
<path d="M84.1204 74.6094L84.8462 73.929L84.8352 73.9173L84.8239 73.9059L84.1204 74.6094ZM72.4017 62.8906L71.5771 62.334L71.1181 63.014L71.6982 63.5941L72.4017 62.8906ZM75.722 48.8281L76.7086 48.7002L76.707 48.6889L75.722 48.8281ZM58.2415 31.4453L58.3716 30.459L58.3649 30.4581L58.2415 31.4453ZM35.3899 54.2969L34.4028 54.4203L34.4036 54.4269L35.3899 54.2969ZM52.7728 71.7773L52.6336 72.7625L52.6449 72.7639L52.7728 71.7773ZM66.9329 68.457L67.6393 67.7565L67.0659 67.1783L66.3858 67.6262L66.9329 68.457ZM78.554 80.1758L77.8476 80.8763L77.8604 80.8892L77.8736 80.9016L78.554 80.1758ZM84.1204 80.1758L84.8008 80.9016L84.8242 80.8796L84.8462 80.8562L84.1204 80.1758ZM84.8239 73.9059L73.1051 62.1872L71.6982 63.5941L83.417 75.3128L84.8239 73.9059ZM73.2262 63.4472C75.9904 59.3522 77.4251 54.228 76.7086 48.7002L74.7354 48.956C75.386 53.9751 74.0864 58.6165 71.5771 62.334L73.2262 63.4472ZM76.707 48.6889C75.3752 39.2634 67.7023 31.6894 58.3716 30.459L58.1114 32.4316C66.5542 33.5449 73.5297 40.4241 74.7369 48.9673L76.707 48.6889ZM58.3649 30.4581C44.4399 28.7175 32.6622 40.4953 34.4028 54.4203L36.3771 54.1735C34.7974 41.536 45.4806 30.8528 58.1181 32.4325L58.3649 30.4581ZM34.4036 54.4269C35.6341 63.7576 43.208 71.4305 52.6336 72.7624L52.9119 70.7923C44.3688 69.5851 37.4896 62.6096 36.3763 54.1668L34.4036 54.4269ZM52.6449 72.7639C58.1748 73.4808 63.2947 72.0441 67.4801 69.2879L66.3858 67.6262C62.5633 70.1434 57.9175 71.4411 52.9006 70.7908L52.6449 72.7639ZM66.2265 69.1575L77.8476 80.8763L79.2604 79.4753L67.6393 67.7565L66.2265 69.1575ZM77.8736 80.9016C79.8188 82.7252 82.8557 82.7252 84.8008 80.9016L83.44 79.45C82.2602 80.5561 80.4142 80.5561 79.2344 79.45L77.8736 80.9016ZM84.8462 80.8562C86.6698 78.911 86.6698 75.8741 84.8462 73.929L83.3946 75.2898C84.5007 76.4696 84.5007 78.3155 83.3946 79.4954L84.8462 80.8562ZM44.002 51.5625C44.002 45.2709 49.128 40.0573 55.5071 40.0573V38.0677C48.0191 38.0677 42.0123 44.1822 42.0123 51.5625H44.002ZM55.5071 40.0573C61.7936 40.0573 67.0123 45.276 67.0123 51.5625H69.002C69.002 44.1771 62.8925 38.0677 55.5071 38.0677V40.0573ZM67.0123 51.5625C67.0123 57.9416 61.7987 63.0677 55.5071 63.0677V65.0573C62.8874 65.0573 69.002 59.0506 69.002 51.5625H67.0123ZM55.5071 63.0677C49.123 63.0677 44.002 57.9467 44.002 51.5625H42.0123C42.0123 59.0455 48.0241 65.0573 55.5071 65.0573V63.0677Z" fill="#373737"/>
</svg>
